<?xml version="1.0" encoding="UTF-8" standalone="no"?>
<svg
   xmlns:dc="http://purl.org/dc/elements/1.1/"
   xmlns:cc="http://creativecommons.org/ns#"
   xmlns:rdf="http://www.w3.org/1999/02/22-rdf-syntax-ns#"
   xmlns:svg="http://www.w3.org/2000/svg"
   xmlns="http://www.w3.org/2000/svg"
   xmlns:xlink="http://www.w3.org/1999/xlink"
   width="49.331539mm"
   height="49.331539mm"
   viewBox="0 0 49.331539 49.331539"
   version="1.1"
   id="svg8">
  <defs
     id="defs2" />
  <metadata
     id="metadata5">
    <rdf:RDF>
      <cc:Work
         rdf:about="">
        <dc:format>image/svg+xml</dc:format>
        <dc:type
           rdf:resource="http://purl.org/dc/dcmitype/StillImage" />
        <dc:title></dc:title>
      </cc:Work>
    </rdf:RDF>
  </metadata>
  <g
     transform="translate(-41.1824,-80.95176)"
     id="layer1">
    <g
       transform="translate(2.5649855,38.688531)"
       style="stroke:none"
       id="g7243">
      <circle
         style="opacity:1;fill:#8ec642;fill-opacity:1;fill-rule:evenodd;stroke:none;stroke-width:0.31833404"
         id="path1855"
         cx="69.08152"
         cy="57.202568"
         r="1.0977037" />
      <use
         style="stroke:none"
         x="0"
         y="0"
         xlink:href="#path1855"
         transform="matrix(1.75,0,0,1.75,-54.761766,-45.814498)"
         id="use7236"
         width="100%"
         height="100%" />
      <use
         style="stroke:none"
         x="0"
         y="0"
         xlink:href="#path1855"
         transform="matrix(2.5,0,0,2.5,-110.77931,-92.998932)"
         id="use7238"
         width="100%"
         height="100%" />
    </g>
    <g
       transform="rotate(45,17.86449,89.369475)"
       id="use8202"
       style="fill:#000000;stroke:none">
      <circle
         r="1.0977037"
         cy="57.202568"
         cx="69.08152"
         id="circle8216"
         style="opacity:1;fill:#63863d;fill-opacity:1;fill-rule:evenodd;stroke:none;stroke-width:0.31833404" />
      <use
         height="100%"
         width="100%"
         id="use8218"
         transform="matrix(1.75,0,0,1.75,-54.761766,-45.814498)"
         xlink:href="#circle8216"
         y="0"
         x="0"
         style="stroke:none" />
      <use
         height="100%"
         width="100%"
         id="use8220"
         transform="matrix(2.5,0,0,2.5,-110.77931,-92.998932)"
         xlink:href="#circle8216"
         y="0"
         x="0"
         style="stroke:none" />
    </g>
    <use
       height="100%"
       width="100%"
       style="fill:#000000;stroke:#000000"
       id="use8266"
       transform="rotate(90,65.84817,105.61753)"
       xlink:href="#g7243"
       y="0"
       x="0" />
    <use
       height="100%"
       width="100%"
       style="fill:#000000;stroke:#000000"
       id="use8268"
       transform="rotate(-90,65.84817,105.61753)"
       xlink:href="#g7243"
       y="0"
       x="0" />
    <use
       height="100%"
       width="100%"
       style="fill:#000000;stroke:#000000"
       id="use8270"
       transform="rotate(180,65.84817,105.61753)"
       xlink:href="#g7243"
       y="0"
       x="0" />
    <use
       height="100%"
       width="100%"
       style="fill:#000000;stroke:#000000"
       id="use8274"
       transform="rotate(90,65.922674,105.76929)"
       xlink:href="#use8202"
       y="0"
       x="0" />
    <use
       height="100%"
       width="100%"
       style="fill:#000000;stroke:#000000"
       id="use8276"
       transform="rotate(-90,65.922674,105.76929)"
       xlink:href="#use8202"
       y="0"
       x="0" />
    <use
       height="100%"
       width="100%"
       style="fill:#000000;stroke:#000000"
       id="use8278"
       transform="rotate(180,65.922674,105.76929)"
       xlink:href="#use8202"
       y="0"
       x="0" />
  </g>
</svg>
